<?xml version="1.0" encoding="utf-8"?>
<!-- Generator: Adobe Illustrator 19.0.0, SVG Export Plug-In . SVG Version: 6.00 Build 0)  -->
<svg version="1.1" id="Layer_1" xmlns="http://www.w3.org/2000/svg" xmlns:xlink="http://www.w3.org/1999/xlink" x="0px" y="0px"
	 viewBox="0 0 32 32" style="enable-background:new 0 0 32 32;" xml:space="preserve">
<style type="text/css">
	.st0{opacity:0.42;fill:#FFFFFF;enable-background:new    ;}
	.st1{opacity:0.72;fill:#FFFFFF;enable-background:new    ;}
	.st2{fill:#FFFFFF;}
</style>
<g id="XMLID_5_">
	<path id="XMLID_3_" class="st0" d="M13.8,30.3L1,24.2c-1.2-0.5-1.2-1.3,0-1.8l4.3-2.2l8.5,4c1.2,0.5,2.8,0.5,4,0l8.5-4l4.5,2.2
		c1.2,0.5,1.2,1.3,0,1.8l-12.8,6.1C16.7,30.8,14.9,30.8,13.8,30.3L13.8,30.3z"/>
	<path id="XMLID_2_" class="st1" d="M13.8,23L1,16.9c-1.2-0.5-1.2-1.3,0-1.8l4.5-2.2l8.5,4c1.2,0.5,2.8,0.5,4,0l8.6-4l4.5,2
		c1.2,0.5,1.2,1.3,0,1.8l-12.9,6.1C16.7,23.5,14.9,23.5,13.8,23L13.8,23z"/>
	<path id="XMLID_1_" class="st2" d="M13.8,15.8L1,9.6c-1.2-0.5-1.2-1.3,0-1.8l12.8-6.1c1.2-0.5,2.8-0.5,4,0l12.8,6.1
		c1.2,0.5,1.2,1.3,0,1.8l-12.8,6.1C16.7,16.2,14.9,16.2,13.8,15.8L13.8,15.8z"/>
</g>
</svg>
