<?xml version="1.0" encoding="utf-8"?>
<!-- Generator: Adobe Illustrator 19.0.0, SVG Export Plug-In . SVG Version: 6.00 Build 0)  -->
<svg version="1.1" id="Layer_1" xmlns="http://www.w3.org/2000/svg" xmlns:xlink="http://www.w3.org/1999/xlink" x="0px" y="0px"
	 viewBox="0 0 16 16" style="enable-background:new 0 0 16 16;" xml:space="preserve">
<style type="text/css">
	.st0{opacity:0.42;enable-background:new    ;}
	.st1{opacity:0.72;enable-background:new    ;}
</style>
<g id="XMLID_5_">
	<path id="XMLID_3_" class="st0" d="M6.9,15.2l-6.4-3.1c-0.6-0.2-0.6-0.7,0-0.9l2.2-1.1l4.2,2c0.6,0.2,1.4,0.2,2,0l4.2-2l2.2,1.1
		c0.6,0.2,0.6,0.7,0,0.9L9,15.2C8.4,15.4,7.5,15.4,6.9,15.2L6.9,15.2z"/>
	<path id="XMLID_2_" class="st1" d="M6.9,11.5L0.5,8.5c-0.6-0.2-0.6-0.7,0-0.9l2.2-1.1l4.2,2c0.6,0.2,1.4,0.2,2,0l4.3-2l2.2,1
		c0.6,0.2,0.6,0.7,0,0.9L9,11.4C8.4,11.8,7.5,11.8,6.9,11.5L6.9,11.5z"/>
	<path id="XMLID_1_" d="M6.9,7.9L0.5,4.8c-0.6-0.2-0.6-0.7,0-0.9l6.4-3.1c0.6-0.2,1.4-0.2,2,0l6.4,3.1c0.6,0.2,0.6,0.7,0,0.9
		L8.9,7.9C8.4,8.1,7.5,8.1,6.9,7.9L6.9,7.9z"/>
</g>
</svg>
