<?xml version="1.0" encoding="UTF-8" standalone="no"?>
<svg width="16px" height="16px" viewBox="0 0 16 16" version="1.1" xmlns="http://www.w3.org/2000/svg" xmlns:xlink="http://www.w3.org/1999/xlink">
    <!-- Generator: Sketch 40.3 (33839) - http://www.bohemiancoding.com/sketch -->
    <title>Nextcloud-icon-ss-16x16</title>
    <desc>Created with Sketch.</desc>
    <defs>
        <path d="M7.92893219,-8.8817842e-16 L0.995577499,-8.8817842e-16 C0.444836974,-8.8817842e-16 0,0.450780073 0,1.00684547 L0,12.9931545 C0,13.5500512 0.445735229,14 0.995577499,14 L10.0044225,14 C10.555163,14 11,13.5492199 11,12.9931545 L11,3.07106781 L7.92893219,-1.94289029e-15 Z" id="path-1"></path>
    </defs>
    <g id="Page-1" stroke="none" stroke-width="1" fill="none" fill-rule="evenodd">
        <g id="Artboard" transform="translate(-47.000000, -26.000000)">
            <g id="Group" transform="translate(49.000000, 27.000000)">
                <g id="Rectangle-3">
                    <mask id="mask-2" fill="white">
                        <use xlink:href="#path-1"></use>
                    </mask>
                    <use id="Mask" fill="#95AF57" xlink:href="#path-1"></use>
                    <rect fill="#688524" mask="url(#mask-2)" x="7" y="-2" width="6" height="6" rx="2"></rect>
                </g>
                <path d="M2,6 L9,6 L9,11 L2,11 L2,6 Z M3,7 L5,7 L5,8 L3,8 L3,7 Z M3,9 L5,9 L5,10 L3,10 L3,9 Z M6,9 L8,9 L8,10 L6,10 L6,9 Z M6,7 L8,7 L8,8 L6,8 L6,7 Z" id="Combined-Shape" fill="#FFFFFF"></path>
            </g>
        </g>
    </g>
</svg>