<?xml version="1.0" encoding="UTF-8" standalone="no"?>
<svg width="16px" height="16px" viewBox="0 0 16 16" version="1.1" xmlns="http://www.w3.org/2000/svg" xmlns:xlink="http://www.w3.org/1999/xlink">
    <!-- Generator: Sketch 40.3 (33839) - http://www.bohemiancoding.com/sketch -->
    <title>Nextcloud-icon-doc-16x16</title>
    <desc>Created with Sketch.</desc>
    <defs>
        <path d="M7.92893219,1.77635684e-15 L0.995577499,1.77635684e-15 C0.444836974,1.77635684e-15 0,0.450780073 0,1.00684547 L0,12.9931545 C0,13.5500512 0.445735229,14 0.995577499,14 L10.0044225,14 C10.555163,14 11,13.5492199 11,12.9931545 L11,3.07106781 L7.92893219,4.99600361e-16 Z" id="path-1"></path>
    </defs>
    <g id="Page-1" stroke="none" stroke-width="1" fill="none" fill-rule="evenodd">
        <g id="Artboard" transform="translate(-24.000000, -26.000000)">
            <g id="Group-Copy" transform="translate(26.000000, 27.000000)">
                <g id="Rectangle-3">
                    <mask id="mask-2" fill="white">
                        <use xlink:href="#path-1"></use>
                    </mask>
                    <use id="Mask" fill="#5A7DC9" xlink:href="#path-1"></use>
                    <rect fill="#1F4FB7" mask="url(#mask-2)" x="7" y="-2" width="6" height="6" rx="2"></rect>
                </g>
                <path d="M2,8 L9,8 L9,9 L2,9 L2,8 Z M2,6 L9,6 L9,7 L2,7 L2,6 Z M2,10 L9,10 L9,11 L2,11 L2,10 Z" id="Combined-Shape" fill="#FFFFFF"></path>
            </g>
        </g>
    </g>
</svg>